# MagicaVoxel @ Ephtracy

# group
g rock

# material
mtllib rock.mtl
usemtl palette

# normals
vn -1 0 0
vn 1 0 0
vn 0 0 1
vn 0 0 -1
vn 0 -1 0
vn 0 1 0

# texcoords
vt 0.369141 0.5

# verts
v -7.5 0 2.5
v -7.5 0 1.5
v -7.5 1 2.5
v -7.5 1 1.5
v -6.5 0 6.5
v -6.5 0 3.5
v -6.5 1 6.5
v -6.5 1 5.5
v -6.5 1 4.5
v -6.5 1 3.5
v -6.5 2 5.5
v -6.5 2 4.5
v -5.5 1 4.5
v -5.5 1 3.5
v -5.5 2 5.5
v -5.5 2 4.5
v -5.5 2 3.5
v -5.5 3 5.5
v -5.5 3 4.5
v -3.5 0 -2.5
v -3.5 0 -3.5
v -3.5 1 -2.5
v -3.5 1 -3.5
v -2.5 0 2.5
v -2.5 0 -1.5
v -2.5 1 -0.5
v -2.5 1 -1.5
v -2.5 2 2.5
v -2.5 2 0.5
v -2.5 3 0.5
v -2.5 3 -0.5
v -1.5 0 6.5
v -1.5 0 5.5
v -1.5 0 4.5
v -1.5 0 2.5
v -1.5 0 -1.5
v -1.5 0 -3.5
v -1.5 1 6.5
v -1.5 1 5.5
v -1.5 1 4.5
v -1.5 1 3.5
v -1.5 1 -0.5
v -1.5 1 -1.5
v -1.5 1 -3.5
v -1.5 2 3.5
v -1.5 2 2.5
v -1.5 2 0.5
v -1.5 3 2.5
v -1.5 3 1.5
v -1.5 3 0.5
v -1.5 3 -0.5
v -1.5 3 -1.5
v -1.5 4 1.5
v -1.5 4 -0.5
v -0.5 1 4.5
v -0.5 1 3.5
v -0.5 1 -1.5
v -0.5 1 -3.5
v -0.5 2 4.5
v -0.5 2 3.5
v -0.5 2 2.5
v -0.5 2 -2.5
v -0.5 2 -3.5
v -0.5 3 2.5
v -0.5 3 1.5
v -0.5 3 -0.5
v -0.5 3 -1.5
v -0.5 3 -2.5
v -0.5 4 3.5
v -0.5 4 2.5
v -0.5 4 1.5
v -0.5 4 -0.5
v -0.5 4 -1.5
v -0.5 5 2.5
v -0.5 5 -0.5
v 0.5 3 -1.5
v 0.5 3 -2.5
v 0.5 4 -0.5
v 0.5 4 -1.5
v 0.5 4 -2.5
v 0.5 5 1.5
v 0.5 5 -0.5
v 0.5 5 -1.5
v 0.5 6 1.5
v 0.5 6 -0.5
v 1.5 0 -3.5
v 1.5 0 -4.5
v 1.5 1 -3.5
v 1.5 1 -4.5
v 4.5 0 8.5
v 4.5 0 7.5
v 4.5 1 8.5
v 4.5 1 7.5
v 6.5 0 -2.5
v 6.5 0 -4.5
v 6.5 1 -2.5
v 6.5 1 -3.5
v 6.5 1 -4.5
v 6.5 2 -2.5
v 6.5 2 -3.5
v -6.5 0 2.5
v -6.5 0 1.5
v -6.5 1 2.5
v -6.5 1 1.5
v -4.5 1 4.5
v -4.5 1 3.5
v -4.5 2 5.5
v -4.5 2 4.5
v -4.5 2 3.5
v -4.5 3 5.5
v -4.5 3 4.5
v -3.5 0 6.5
v -3.5 0 5.5
v -3.5 0 4.5
v -3.5 0 3.5
v -3.5 1 6.5
v -3.5 1 5.5
v -3.5 1 4.5
v -3.5 1 3.5
v -3.5 2 5.5
v -3.5 2 4.5
v -2.5 0 5.5
v -2.5 0 4.5
v -2.5 0 -2.5
v -2.5 0 -3.5
v -2.5 1 5.5
v -2.5 1 4.5
v -2.5 1 -2.5
v -2.5 1 -3.5
v -0.5 0 6.5
v -0.5 0 5.5
v -0.5 1 6.5
v -0.5 1 5.5
v 1.5 1 4.5
v 1.5 1 3.5
v 1.5 2 4.5
v 1.5 2 3.5
v 2.5 5 1.5
v 2.5 5 -0.5
v 2.5 6 1.5
v 2.5 6 -0.5
v 3.5 0 4.5
v 3.5 0 3.5
v 3.5 1 4.5
v 3.5 1 3.5
v 3.5 2 -1.5
v 3.5 2 -2.5
v 3.5 3 3.5
v 3.5 3 2.5
v 3.5 4 3.5
v 3.5 4 2.5
v 3.5 4 1.5
v 3.5 4 0.5
v 3.5 4 -1.5
v 3.5 4 -2.5
v 3.5 5 2.5
v 3.5 5 1.5
v 3.5 5 0.5
v 3.5 5 -1.5
v 4.5 0 2.5
v 4.5 0 1.5
v 4.5 0 -3.5
v 4.5 0 -4.5
v 4.5 1 3.5
v 4.5 1 2.5
v 4.5 1 -2.5
v 4.5 1 -3.5
v 4.5 1 -4.5
v 4.5 2 1.5
v 4.5 2 -1.5
v 4.5 2 -2.5
v 4.5 2 -3.5
v 4.5 3 3.5
v 4.5 3 2.5
v 4.5 4 2.5
v 4.5 4 1.5
v 4.5 4 0.5
v 4.5 4 -1.5
v 4.5 5 1.5
v 4.5 5 0.5
v 5.5 0 8.5
v 5.5 0 7.5
v 5.5 0 3.5
v 5.5 0 2.5
v 5.5 0 1.5
v 5.5 0 -0.5
v 5.5 0 -2.5
v 5.5 0 -3.5
v 5.5 1 8.5
v 5.5 1 7.5
v 5.5 1 3.5
v 5.5 1 2.5
v 5.5 1 -0.5
v 5.5 1 -2.5
v 5.5 1 -3.5
v 5.5 2 1.5
v 5.5 2 -2.5
v 6.5 0 -0.5
v 6.5 0 -2.5
v 6.5 1 -0.5
v 6.5 1 -2.5
v 7.5 0 -3.5
v 7.5 0 -4.5
v 7.5 1 -2.5
v 7.5 1 -3.5
v 7.5 1 -4.5
v 7.5 2 -2.5
v 7.5 2 -3.5
v 8.5 0 -2.5
v 8.5 0 -3.5
v 8.5 1 -2.5
v 8.5 1 -3.5
v 4.5 0 8.5
v 4.5 1 8.5
v 5.5 0 8.5
v 5.5 1 8.5
v -6.5 0 6.5
v -6.5 1 6.5
v -3.5 0 6.5
v -3.5 1 6.5
v -1.5 0 6.5
v -1.5 1 6.5
v -0.5 0 6.5
v -0.5 1 6.5
v -6.5 1 5.5
v -6.5 2 5.5
v -5.5 2 5.5
v -5.5 3 5.5
v -4.5 2 5.5
v -4.5 3 5.5
v -3.5 0 5.5
v -3.5 1 5.5
v -3.5 2 5.5
v -2.5 0 5.5
v -2.5 1 5.5
v -1.5 0 4.5
v -1.5 1 4.5
v -0.5 1 4.5
v -0.5 2 4.5
v 1.5 1 4.5
v 1.5 2 4.5
v 3.5 0 4.5
v 3.5 1 4.5
v -1.5 1 3.5
v -1.5 2 3.5
v -0.5 1 3.5
v -0.5 2 3.5
v -0.5 4 3.5
v 1.5 1 3.5
v 1.5 2 3.5
v 3.5 0 3.5
v 3.5 1 3.5
v 3.5 3 3.5
v 3.5 4 3.5
v 4.5 1 3.5
v 4.5 3 3.5
v 5.5 0 3.5
v 5.5 1 3.5
v -7.5 0 2.5
v -7.5 1 2.5
v -6.5 0 2.5
v -6.5 1 2.5
v -2.5 0 2.5
v -2.5 2 2.5
v -1.5 0 2.5
v -1.5 2 2.5
v -1.5 3 2.5
v -0.5 2 2.5
v -0.5 3 2.5
v -0.5 4 2.5
v -0.5 5 2.5
v 3.5 3 2.5
v 3.5 4 2.5
v 3.5 5 2.5
v 4.5 3 2.5
v 4.5 4 2.5
v -1.5 3 1.5
v -1.5 4 1.5
v -0.5 3 1.5
v -0.5 4 1.5
v 0.5 5 1.5
v 0.5 6 1.5
v 2.5 5 1.5
v 2.5 6 1.5
v 3.5 4 1.5
v 3.5 5 1.5
v 4.5 0 1.5
v 4.5 2 1.5
v 4.5 4 1.5
v 4.5 5 1.5
v 5.5 0 1.5
v 5.5 2 1.5
v -2.5 2 0.5
v -2.5 3 0.5
v -1.5 2 0.5
v -1.5 3 0.5
v 5.5 0 -0.5
v 5.5 1 -0.5
v 6.5 0 -0.5
v 6.5 1 -0.5
v -3.5 0 -2.5
v -3.5 1 -2.5
v -2.5 0 -2.5
v -2.5 1 -2.5
v 6.5 0 -2.5
v 6.5 1 -2.5
v 6.5 2 -2.5
v 7.5 1 -2.5
v 7.5 2 -2.5
v 8.5 0 -2.5
v 8.5 1 -2.5
v 4.5 0 7.5
v 4.5 1 7.5
v 5.5 0 7.5
v 5.5 1 7.5
v -1.5 0 5.5
v -1.5 1 5.5
v -0.5 0 5.5
v -0.5 1 5.5
v -6.5 1 4.5
v -6.5 2 4.5
v -5.5 1 4.5
v -5.5 2 4.5
v -5.5 3 4.5
v -4.5 1 4.5
v -4.5 2 4.5
v -4.5 3 4.5
v -3.5 0 4.5
v -3.5 1 4.5
v -3.5 2 4.5
v -2.5 0 4.5
v -2.5 1 4.5
v -6.5 0 3.5
v -6.5 1 3.5
v -5.5 1 3.5
v -5.5 2 3.5
v -4.5 1 3.5
v -4.5 2 3.5
v -3.5 0 3.5
v -3.5 1 3.5
v 4.5 0 2.5
v 4.5 1 2.5
v 5.5 0 2.5
v 5.5 1 2.5
v -7.5 0 1.5
v -7.5 1 1.5
v -6.5 0 1.5
v -6.5 1 1.5
v 3.5 4 0.5
v 3.5 5 0.5
v 4.5 4 0.5
v 4.5 5 0.5
v -2.5 1 -0.5
v -2.5 3 -0.5
v -1.5 1 -0.5
v -1.5 3 -0.5
v -1.5 4 -0.5
v -0.5 3 -0.5
v -0.5 4 -0.5
v -0.5 5 -0.5
v 0.5 4 -0.5
v 0.5 5 -0.5
v 0.5 6 -0.5
v 2.5 5 -0.5
v 2.5 6 -0.5
v -2.5 0 -1.5
v -2.5 1 -1.5
v -1.5 0 -1.5
v -1.5 1 -1.5
v -1.5 3 -1.5
v -0.5 1 -1.5
v -0.5 3 -1.5
v -0.5 4 -1.5
v 0.5 3 -1.5
v 0.5 4 -1.5
v 0.5 5 -1.5
v 3.5 2 -1.5
v 3.5 4 -1.5
v 3.5 5 -1.5
v 4.5 2 -1.5
v 4.5 4 -1.5
v -0.5 2 -2.5
v -0.5 3 -2.5
v 0.5 3 -2.5
v 0.5 4 -2.5
v 3.5 2 -2.5
v 3.5 4 -2.5
v 4.5 1 -2.5
v 4.5 2 -2.5
v 5.5 0 -2.5
v 5.5 1 -2.5
v 5.5 2 -2.5
v 6.5 0 -2.5
v 6.5 1 -2.5
v -3.5 0 -3.5
v -3.5 1 -3.5
v -2.5 0 -3.5
v -2.5 1 -3.5
v -1.5 0 -3.5
v -1.5 1 -3.5
v -0.5 1 -3.5
v -0.5 2 -3.5
v 1.5 0 -3.5
v 1.5 1 -3.5
v 4.5 0 -3.5
v 4.5 1 -3.5
v 4.5 2 -3.5
v 5.5 0 -3.5
v 5.5 1 -3.5
v 6.5 1 -3.5
v 6.5 2 -3.5
v 7.5 0 -3.5
v 7.5 1 -3.5
v 7.5 2 -3.5
v 8.5 0 -3.5
v 8.5 1 -3.5
v 1.5 0 -4.5
v 1.5 1 -4.5
v 4.5 0 -4.5
v 4.5 1 -4.5
v 6.5 0 -4.5
v 6.5 1 -4.5
v 7.5 0 -4.5
v 7.5 1 -4.5
v 4.5 0 8.5
v 5.5 0 8.5
v 4.5 0 7.5
v 5.5 0 7.5
v -6.5 0 6.5
v -3.5 0 6.5
v -1.5 0 6.5
v -0.5 0 6.5
v -3.5 0 5.5
v -2.5 0 5.5
v -1.5 0 5.5
v -0.5 0 5.5
v -3.5 0 4.5
v -2.5 0 4.5
v -1.5 0 4.5
v 3.5 0 4.5
v -6.5 0 3.5
v -3.5 0 3.5
v 3.5 0 3.5
v 5.5 0 3.5
v -7.5 0 2.5
v -6.5 0 2.5
v -2.5 0 2.5
v -1.5 0 2.5
v 4.5 0 2.5
v 5.5 0 2.5
v -7.5 0 1.5
v -6.5 0 1.5
v 4.5 0 1.5
v 5.5 0 1.5
v 5.5 0 -0.5
v 6.5 0 -0.5
v -2.5 0 -1.5
v -1.5 0 -1.5
v -3.5 0 -2.5
v -2.5 0 -2.5
v 5.5 0 -2.5
v 6.5 0 -2.5
v 8.5 0 -2.5
v -3.5 0 -3.5
v -2.5 0 -3.5
v -1.5 0 -3.5
v 1.5 0 -3.5
v 4.5 0 -3.5
v 5.5 0 -3.5
v 7.5 0 -3.5
v 8.5 0 -3.5
v 1.5 0 -4.5
v 4.5 0 -4.5
v 6.5 0 -4.5
v 7.5 0 -4.5
v 4.5 1 8.5
v 5.5 1 8.5
v 4.5 1 7.5
v 5.5 1 7.5
v -6.5 1 6.5
v -3.5 1 6.5
v -1.5 1 6.5
v -0.5 1 6.5
v -6.5 1 5.5
v -3.5 1 5.5
v -2.5 1 5.5
v -1.5 1 5.5
v -0.5 1 5.5
v -6.5 1 4.5
v -5.5 1 4.5
v -4.5 1 4.5
v -3.5 1 4.5
v -2.5 1 4.5
v -1.5 1 4.5
v -0.5 1 4.5
v 1.5 1 4.5
v 3.5 1 4.5
v -6.5 1 3.5
v -5.5 1 3.5
v -4.5 1 3.5
v -3.5 1 3.5
v -1.5 1 3.5
v -0.5 1 3.5
v 1.5 1 3.5
v 3.5 1 3.5
v 4.5 1 3.5
v 5.5 1 3.5
v -7.5 1 2.5
v -6.5 1 2.5
v 4.5 1 2.5
v 5.5 1 2.5
v -7.5 1 1.5
v -6.5 1 1.5
v -2.5 1 -0.5
v -1.5 1 -0.5
v 5.5 1 -0.5
v 6.5 1 -0.5
v -2.5 1 -1.5
v -1.5 1 -1.5
v -0.5 1 -1.5
v -3.5 1 -2.5
v -2.5 1 -2.5
v 4.5 1 -2.5
v 5.5 1 -2.5
v 6.5 1 -2.5
v 7.5 1 -2.5
v 8.5 1 -2.5
v -3.5 1 -3.5
v -2.5 1 -3.5
v -1.5 1 -3.5
v -0.5 1 -3.5
v 1.5 1 -3.5
v 4.5 1 -3.5
v 5.5 1 -3.5
v 6.5 1 -3.5
v 7.5 1 -3.5
v 8.5 1 -3.5
v 1.5 1 -4.5
v 4.5 1 -4.5
v 6.5 1 -4.5
v 7.5 1 -4.5
v -6.5 2 5.5
v -5.5 2 5.5
v -4.5 2 5.5
v -3.5 2 5.5
v -6.5 2 4.5
v -5.5 2 4.5
v -4.5 2 4.5
v -3.5 2 4.5
v -0.5 2 4.5
v 1.5 2 4.5
v -5.5 2 3.5
v -4.5 2 3.5
v -1.5 2 3.5
v -0.5 2 3.5
v 1.5 2 3.5
v -2.5 2 2.5
v -1.5 2 2.5
v -0.5 2 2.5
v 4.5 2 1.5
v 5.5 2 1.5
v -2.5 2 0.5
v -1.5 2 0.5
v 3.5 2 -1.5
v 4.5 2 -1.5
v -0.5 2 -2.5
v 3.5 2 -2.5
v 4.5 2 -2.5
v 5.5 2 -2.5
v 6.5 2 -2.5
v 7.5 2 -2.5
v -0.5 2 -3.5
v 4.5 2 -3.5
v 6.5 2 -3.5
v 7.5 2 -3.5
v -5.5 3 5.5
v -4.5 3 5.5
v -5.5 3 4.5
v -4.5 3 4.5
v 3.5 3 3.5
v 4.5 3 3.5
v -1.5 3 2.5
v -0.5 3 2.5
v 3.5 3 2.5
v 4.5 3 2.5
v -1.5 3 1.5
v -0.5 3 1.5
v -2.5 3 0.5
v -1.5 3 0.5
v -2.5 3 -0.5
v -1.5 3 -0.5
v -0.5 3 -0.5
v -1.5 3 -1.5
v -0.5 3 -1.5
v 0.5 3 -1.5
v -0.5 3 -2.5
v 0.5 3 -2.5
v -0.5 4 3.5
v 3.5 4 3.5
v -0.5 4 2.5
v 3.5 4 2.5
v 4.5 4 2.5
v -1.5 4 1.5
v -0.5 4 1.5
v 3.5 4 1.5
v 4.5 4 1.5
v 3.5 4 0.5
v 4.5 4 0.5
v -1.5 4 -0.5
v -0.5 4 -0.5
v 0.5 4 -0.5
v -0.5 4 -1.5
v 0.5 4 -1.5
v 3.5 4 -1.5
v 4.5 4 -1.5
v 0.5 4 -2.5
v 3.5 4 -2.5
v -0.5 5 2.5
v 3.5 5 2.5
v 0.5 5 1.5
v 2.5 5 1.5
v 3.5 5 1.5
v 4.5 5 1.5
v 3.5 5 0.5
v 4.5 5 0.5
v -0.5 5 -0.5
v 0.5 5 -0.5
v 2.5 5 -0.5
v 0.5 5 -1.5
v 3.5 5 -1.5
v 0.5 6 1.5
v 2.5 6 1.5
v 0.5 6 -0.5
v 2.5 6 -0.5

# faces
f 3/1/1 2/1/1 1/1/1
f 4/1/1 2/1/1 3/1/1
f 7/1/1 6/1/1 5/1/1
f 8/1/1 6/1/1 7/1/1
f 9/1/1 6/1/1 8/1/1
f 10/1/1 6/1/1 9/1/1
f 11/1/1 9/1/1 8/1/1
f 12/1/1 9/1/1 11/1/1
f 16/1/1 14/1/1 13/1/1
f 17/1/1 14/1/1 16/1/1
f 18/1/1 16/1/1 15/1/1
f 19/1/1 16/1/1 18/1/1
f 22/1/1 21/1/1 20/1/1
f 23/1/1 21/1/1 22/1/1
f 26/1/1 25/1/1 24/1/1
f 27/1/1 25/1/1 26/1/1
f 28/1/1 26/1/1 24/1/1
f 29/1/1 26/1/1 28/1/1
f 30/1/1 26/1/1 29/1/1
f 31/1/1 26/1/1 30/1/1
f 38/1/1 33/1/1 32/1/1
f 39/1/1 33/1/1 38/1/1
f 40/1/1 35/1/1 34/1/1
f 41/1/1 35/1/1 40/1/1
f 43/1/1 37/1/1 36/1/1
f 44/1/1 37/1/1 43/1/1
f 45/1/1 35/1/1 41/1/1
f 46/1/1 35/1/1 45/1/1
f 48/1/1 47/1/1 46/1/1
f 49/1/1 47/1/1 48/1/1
f 50/1/1 47/1/1 49/1/1
f 51/1/1 43/1/1 42/1/1
f 52/1/1 43/1/1 51/1/1
f 53/1/1 50/1/1 49/1/1
f 53/1/1 51/1/1 50/1/1
f 54/1/1 51/1/1 53/1/1
f 59/1/1 56/1/1 55/1/1
f 60/1/1 56/1/1 59/1/1
f 62/1/1 58/1/1 57/1/1
f 63/1/1 58/1/1 62/1/1
f 64/1/1 61/1/1 60/1/1
f 67/1/1 62/1/1 57/1/1
f 68/1/1 62/1/1 67/1/1
f 69/1/1 65/1/1 64/1/1
f 69/1/1 64/1/1 60/1/1
f 70/1/1 65/1/1 69/1/1
f 71/1/1 65/1/1 70/1/1
f 72/1/1 67/1/1 66/1/1
f 73/1/1 67/1/1 72/1/1
f 74/1/1 71/1/1 70/1/1
f 74/1/1 72/1/1 71/1/1
f 75/1/1 72/1/1 74/1/1
f 79/1/1 77/1/1 76/1/1
f 80/1/1 77/1/1 79/1/1
f 82/1/1 79/1/1 78/1/1
f 83/1/1 79/1/1 82/1/1
f 84/1/1 82/1/1 81/1/1
f 85/1/1 82/1/1 84/1/1
f 88/1/1 87/1/1 86/1/1
f 89/1/1 87/1/1 88/1/1
f 92/1/1 91/1/1 90/1/1
f 93/1/1 91/1/1 92/1/1
f 96/1/1 95/1/1 94/1/1
f 97/1/1 95/1/1 96/1/1
f 98/1/1 95/1/1 97/1/1
f 99/1/1 97/1/1 96/1/1
f 100/1/1 97/1/1 99/1/1
f 101/1/2 102/1/2 103/1/2
f 103/1/2 102/1/2 104/1/2
f 105/1/2 106/1/2 108/1/2
f 108/1/2 106/1/2 109/1/2
f 107/1/2 108/1/2 110/1/2
f 110/1/2 108/1/2 111/1/2
f 112/1/2 113/1/2 116/1/2
f 116/1/2 113/1/2 117/1/2
f 114/1/2 115/1/2 118/1/2
f 118/1/2 115/1/2 119/1/2
f 117/1/2 118/1/2 120/1/2
f 120/1/2 118/1/2 121/1/2
f 122/1/2 123/1/2 126/1/2
f 126/1/2 123/1/2 127/1/2
f 124/1/2 125/1/2 128/1/2
f 128/1/2 125/1/2 129/1/2
f 130/1/2 131/1/2 132/1/2
f 132/1/2 131/1/2 133/1/2
f 134/1/2 135/1/2 136/1/2
f 136/1/2 135/1/2 137/1/2
f 138/1/2 139/1/2 140/1/2
f 140/1/2 139/1/2 141/1/2
f 142/1/2 143/1/2 144/1/2
f 144/1/2 143/1/2 145/1/2
f 148/1/2 149/1/2 150/1/2
f 150/1/2 149/1/2 151/1/2
f 146/1/2 147/1/2 154/1/2
f 154/1/2 147/1/2 155/1/2
f 151/1/2 152/1/2 156/1/2
f 156/1/2 152/1/2 157/1/2
f 153/1/2 154/1/2 158/1/2
f 158/1/2 154/1/2 159/1/2
f 160/1/2 161/1/2 165/1/2
f 162/1/2 163/1/2 167/1/2
f 167/1/2 163/1/2 168/1/2
f 164/1/2 165/1/2 169/1/2
f 165/1/2 161/1/2 169/1/2
f 166/1/2 167/1/2 171/1/2
f 171/1/2 167/1/2 172/1/2
f 169/1/2 170/1/2 173/1/2
f 164/1/2 169/1/2 173/1/2
f 173/1/2 170/1/2 174/1/2
f 174/1/2 170/1/2 175/1/2
f 175/1/2 170/1/2 176/1/2
f 176/1/2 170/1/2 177/1/2
f 177/1/2 170/1/2 178/1/2
f 176/1/2 177/1/2 179/1/2
f 179/1/2 177/1/2 180/1/2
f 181/1/2 182/1/2 189/1/2
f 189/1/2 182/1/2 190/1/2
f 183/1/2 184/1/2 191/1/2
f 191/1/2 184/1/2 192/1/2
f 185/1/2 186/1/2 193/1/2
f 187/1/2 188/1/2 194/1/2
f 194/1/2 188/1/2 195/1/2
f 185/1/2 193/1/2 196/1/2
f 193/1/2 194/1/2 196/1/2
f 196/1/2 194/1/2 197/1/2
f 198/1/2 199/1/2 200/1/2
f 200/1/2 199/1/2 201/1/2
f 202/1/2 203/1/2 205/1/2
f 205/1/2 203/1/2 206/1/2
f 204/1/2 205/1/2 207/1/2
f 207/1/2 205/1/2 208/1/2
f 209/1/2 210/1/2 211/1/2
f 211/1/2 210/1/2 212/1/2
f 215/1/3 214/1/3 213/1/3
f 216/1/3 214/1/3 215/1/3
f 219/1/3 218/1/3 217/1/3
f 220/1/3 218/1/3 219/1/3
f 223/1/3 222/1/3 221/1/3
f 224/1/3 222/1/3 223/1/3
f 227/1/3 226/1/3 225/1/3
f 229/1/3 227/1/3 225/1/3
f 229/1/3 228/1/3 227/1/3
f 230/1/3 228/1/3 229/1/3
f 232/1/3 229/1/3 225/1/3
f 233/1/3 229/1/3 232/1/3
f 234/1/3 232/1/3 231/1/3
f 235/1/3 232/1/3 234/1/3
f 238/1/3 237/1/3 236/1/3
f 240/1/3 238/1/3 236/1/3
f 240/1/3 239/1/3 238/1/3
f 241/1/3 239/1/3 240/1/3
f 242/1/3 240/1/3 236/1/3
f 243/1/3 240/1/3 242/1/3
f 246/1/3 245/1/3 244/1/3
f 247/1/3 245/1/3 246/1/3
f 250/1/3 248/1/3 247/1/3
f 252/1/3 250/1/3 249/1/3
f 253/1/3 248/1/3 250/1/3
f 253/1/3 250/1/3 252/1/3
f 254/1/3 248/1/3 253/1/3
f 255/1/3 252/1/3 251/1/3
f 255/1/3 253/1/3 252/1/3
f 256/1/3 253/1/3 255/1/3
f 257/1/3 255/1/3 251/1/3
f 258/1/3 255/1/3 257/1/3
f 261/1/3 260/1/3 259/1/3
f 262/1/3 260/1/3 261/1/3
f 265/1/3 264/1/3 263/1/3
f 266/1/3 264/1/3 265/1/3
f 268/1/3 267/1/3 266/1/3
f 269/1/3 267/1/3 268/1/3
f 273/1/3 271/1/3 270/1/3
f 274/1/3 271/1/3 273/1/3
f 275/1/3 273/1/3 272/1/3
f 276/1/3 273/1/3 275/1/3
f 279/1/3 278/1/3 277/1/3
f 280/1/3 278/1/3 279/1/3
f 283/1/3 282/1/3 281/1/3
f 284/1/3 282/1/3 283/1/3
f 289/1/3 286/1/3 285/1/3
f 290/1/3 286/1/3 289/1/3
f 291/1/3 288/1/3 287/1/3
f 292/1/3 288/1/3 291/1/3
f 295/1/3 294/1/3 293/1/3
f 296/1/3 294/1/3 295/1/3
f 299/1/3 298/1/3 297/1/3
f 300/1/3 298/1/3 299/1/3
f 303/1/3 302/1/3 301/1/3
f 304/1/3 302/1/3 303/1/3
f 308/1/3 306/1/3 305/1/3
f 308/1/3 307/1/3 306/1/3
f 309/1/3 307/1/3 308/1/3
f 310/1/3 308/1/3 305/1/3
f 311/1/3 308/1/3 310/1/3
f 312/1/4 313/1/4 314/1/4
f 314/1/4 313/1/4 315/1/4
f 316/1/4 317/1/4 318/1/4
f 318/1/4 317/1/4 319/1/4
f 320/1/4 321/1/4 322/1/4
f 322/1/4 321/1/4 323/1/4
f 323/1/4 324/1/4 326/1/4
f 326/1/4 324/1/4 327/1/4
f 325/1/4 326/1/4 329/1/4
f 329/1/4 326/1/4 330/1/4
f 328/1/4 329/1/4 331/1/4
f 331/1/4 329/1/4 332/1/4
f 333/1/4 334/1/4 335/1/4
f 333/1/4 335/1/4 337/1/4
f 335/1/4 336/1/4 337/1/4
f 337/1/4 336/1/4 338/1/4
f 333/1/4 337/1/4 339/1/4
f 339/1/4 337/1/4 340/1/4
f 341/1/4 342/1/4 343/1/4
f 343/1/4 342/1/4 344/1/4
f 345/1/4 346/1/4 347/1/4
f 347/1/4 346/1/4 348/1/4
f 349/1/4 350/1/4 351/1/4
f 351/1/4 350/1/4 352/1/4
f 353/1/4 354/1/4 355/1/4
f 355/1/4 354/1/4 356/1/4
f 356/1/4 357/1/4 358/1/4
f 358/1/4 357/1/4 359/1/4
f 359/1/4 360/1/4 361/1/4
f 361/1/4 360/1/4 362/1/4
f 362/1/4 363/1/4 364/1/4
f 364/1/4 363/1/4 365/1/4
f 366/1/4 367/1/4 368/1/4
f 368/1/4 367/1/4 369/1/4
f 369/1/4 370/1/4 371/1/4
f 371/1/4 370/1/4 372/1/4
f 372/1/4 373/1/4 374/1/4
f 374/1/4 373/1/4 375/1/4
f 375/1/4 376/1/4 378/1/4
f 378/1/4 376/1/4 379/1/4
f 377/1/4 378/1/4 380/1/4
f 380/1/4 378/1/4 381/1/4
f 382/1/4 383/1/4 384/1/4
f 382/1/4 384/1/4 386/1/4
f 384/1/4 385/1/4 386/1/4
f 386/1/4 385/1/4 387/1/4
f 388/1/4 389/1/4 391/1/4
f 391/1/4 389/1/4 392/1/4
f 390/1/4 391/1/4 393/1/4
f 393/1/4 391/1/4 394/1/4
f 395/1/4 396/1/4 397/1/4
f 397/1/4 396/1/4 398/1/4
f 399/1/4 400/1/4 401/1/4
f 399/1/4 401/1/4 403/1/4
f 401/1/4 402/1/4 403/1/4
f 403/1/4 402/1/4 404/1/4
f 404/1/4 402/1/4 406/1/4
f 406/1/4 402/1/4 407/1/4
f 405/1/4 406/1/4 408/1/4
f 408/1/4 406/1/4 409/1/4
f 410/1/4 411/1/4 413/1/4
f 413/1/4 411/1/4 414/1/4
f 412/1/4 413/1/4 415/1/4
f 415/1/4 413/1/4 416/1/4
f 417/1/4 418/1/4 419/1/4
f 419/1/4 418/1/4 420/1/4
f 421/1/4 422/1/4 423/1/4
f 423/1/4 422/1/4 424/1/4
f 427/1/5 426/1/5 425/1/5
f 428/1/5 426/1/5 427/1/5
f 433/1/5 430/1/5 429/1/5
f 435/1/5 432/1/5 431/1/5
f 436/1/5 432/1/5 435/1/5
f 437/1/5 434/1/5 433/1/5
f 437/1/5 433/1/5 429/1/5
f 438/1/5 434/1/5 437/1/5
f 441/1/5 437/1/5 429/1/5
f 442/1/5 437/1/5 441/1/5
f 443/1/5 440/1/5 439/1/5
f 448/1/5 444/1/5 443/1/5
f 448/1/5 443/1/5 439/1/5
f 449/1/5 444/1/5 448/1/5
f 450/1/5 444/1/5 449/1/5
f 451/1/5 446/1/5 445/1/5
f 452/1/5 446/1/5 451/1/5
f 453/1/5 448/1/5 447/1/5
f 453/1/5 449/1/5 448/1/5
f 455/1/5 454/1/5 453/1/5
f 457/1/5 455/1/5 453/1/5
f 457/1/5 456/1/5 455/1/5
f 457/1/5 453/1/5 447/1/5
f 458/1/5 456/1/5 457/1/5
f 461/1/5 456/1/5 458/1/5
f 462/1/5 456/1/5 461/1/5
f 464/1/5 460/1/5 459/1/5
f 465/1/5 460/1/5 464/1/5
f 466/1/5 461/1/5 458/1/5
f 467/1/5 461/1/5 466/1/5
f 468/1/5 461/1/5 467/1/5
f 469/1/5 461/1/5 468/1/5
f 470/1/5 463/1/5 462/1/5
f 471/1/5 463/1/5 470/1/5
f 472/1/5 468/1/5 467/1/5
f 473/1/5 468/1/5 472/1/5
f 474/1/5 470/1/5 462/1/5
f 475/1/5 470/1/5 474/1/5
f 476/1/6 477/1/6 478/1/6
f 478/1/6 477/1/6 479/1/6
f 480/1/6 481/1/6 484/1/6
f 484/1/6 481/1/6 485/1/6
f 482/1/6 483/1/6 487/1/6
f 487/1/6 483/1/6 488/1/6
f 485/1/6 486/1/6 492/1/6
f 492/1/6 486/1/6 493/1/6
f 489/1/6 490/1/6 498/1/6
f 498/1/6 490/1/6 499/1/6
f 491/1/6 492/1/6 500/1/6
f 500/1/6 492/1/6 501/1/6
f 494/1/6 495/1/6 502/1/6
f 502/1/6 495/1/6 503/1/6
f 496/1/6 497/1/6 504/1/6
f 504/1/6 497/1/6 505/1/6
f 506/1/6 507/1/6 510/1/6
f 510/1/6 507/1/6 511/1/6
f 508/1/6 509/1/6 512/1/6
f 512/1/6 509/1/6 513/1/6
f 514/1/6 515/1/6 518/1/6
f 518/1/6 515/1/6 519/1/6
f 516/1/6 517/1/6 524/1/6
f 524/1/6 517/1/6 525/1/6
f 521/1/6 522/1/6 528/1/6
f 528/1/6 522/1/6 529/1/6
f 519/1/6 520/1/6 530/1/6
f 530/1/6 520/1/6 531/1/6
f 523/1/6 524/1/6 533/1/6
f 533/1/6 524/1/6 534/1/6
f 526/1/6 527/1/6 536/1/6
f 536/1/6 527/1/6 537/1/6
f 532/1/6 533/1/6 538/1/6
f 538/1/6 533/1/6 539/1/6
f 535/1/6 536/1/6 540/1/6
f 540/1/6 536/1/6 541/1/6
f 542/1/6 543/1/6 546/1/6
f 546/1/6 543/1/6 547/1/6
f 544/1/6 545/1/6 548/1/6
f 548/1/6 545/1/6 549/1/6
f 547/1/6 548/1/6 552/1/6
f 552/1/6 548/1/6 553/1/6
f 550/1/6 551/1/6 555/1/6
f 555/1/6 551/1/6 556/1/6
f 554/1/6 555/1/6 558/1/6
f 558/1/6 555/1/6 559/1/6
f 557/1/6 558/1/6 562/1/6
f 562/1/6 558/1/6 563/1/6
f 560/1/6 561/1/6 565/1/6
f 564/1/6 565/1/6 567/1/6
f 565/1/6 561/1/6 568/1/6
f 567/1/6 565/1/6 568/1/6
f 568/1/6 561/1/6 569/1/6
f 566/1/6 567/1/6 572/1/6
f 567/1/6 568/1/6 572/1/6
f 572/1/6 568/1/6 573/1/6
f 570/1/6 571/1/6 574/1/6
f 574/1/6 571/1/6 575/1/6
f 576/1/6 577/1/6 578/1/6
f 578/1/6 577/1/6 579/1/6
f 580/1/6 581/1/6 584/1/6
f 584/1/6 581/1/6 585/1/6
f 582/1/6 583/1/6 586/1/6
f 586/1/6 583/1/6 587/1/6
f 588/1/6 589/1/6 590/1/6
f 590/1/6 589/1/6 591/1/6
f 591/1/6 592/1/6 593/1/6
f 593/1/6 592/1/6 594/1/6
f 594/1/6 595/1/6 596/1/6
f 596/1/6 595/1/6 597/1/6
f 598/1/6 599/1/6 600/1/6
f 600/1/6 599/1/6 601/1/6
f 601/1/6 602/1/6 605/1/6
f 605/1/6 602/1/6 606/1/6
f 603/1/6 604/1/6 609/1/6
f 609/1/6 604/1/6 610/1/6
f 610/1/6 611/1/6 612/1/6
f 612/1/6 611/1/6 613/1/6
f 607/1/6 608/1/6 614/1/6
f 614/1/6 608/1/6 615/1/6
f 613/1/6 614/1/6 616/1/6
f 616/1/6 614/1/6 617/1/6
f 618/1/6 619/1/6 620/1/6
f 620/1/6 619/1/6 621/1/6
f 621/1/6 619/1/6 622/1/6
f 622/1/6 623/1/6 624/1/6
f 621/1/6 622/1/6 624/1/6
f 624/1/6 623/1/6 625/1/6
f 618/1/6 620/1/6 626/1/6
f 626/1/6 620/1/6 627/1/6
f 621/1/6 624/1/6 628/1/6
f 627/1/6 628/1/6 629/1/6
f 628/1/6 624/1/6 630/1/6
f 629/1/6 628/1/6 630/1/6
f 631/1/6 632/1/6 633/1/6
f 633/1/6 632/1/6 634/1/6
